<svg width="44" height="44" viewBox="0 0 44 44" fill="none" xmlns="http://www.w3.org/2000/svg">
<g clip-path="url(#clip0_2_353)">
<path d="M22 0C17.6488 0 13.3953 1.29028 9.77746 3.70767C6.15958 6.12506 3.33979 9.56099 1.67466 13.581C0.00953218 17.6009 -0.426141 22.0244 0.422734 26.292C1.27161 30.5596 3.36691 34.4796 6.44366 37.5564C9.52042 40.6331 13.4404 42.7284 17.708 43.5773C21.9756 44.4262 26.3991 43.9905 30.419 42.3253C34.439 40.6602 37.875 37.8404 40.2923 34.2225C42.7097 30.6047 44 26.3512 44 22C44 16.1652 41.6822 10.5695 37.5564 6.44365C33.4306 2.31785 27.8348 0 22 0V0ZM21.3125 3.66644C21.3125 3.4841 21.3849 3.30923 21.5139 3.1803C21.6428 3.05137 21.8177 2.97894 22 2.97894C22.1823 2.97894 22.3572 3.05137 22.4861 3.1803C22.6151 3.30923 22.6875 3.4841 22.6875 3.66644V7.33288C22.6875 7.51521 22.6151 7.69008 22.4861 7.81901C22.3572 7.94794 22.1823 8.02038 22 8.02038C21.8177 8.02038 21.6428 7.94794 21.5139 7.81901C21.3849 7.69008 21.3125 7.51521 21.3125 7.33288V3.66644ZM7.33357 22.6875H3.66645C3.48411 22.6875 3.30924 22.6151 3.18031 22.4861C3.05138 22.3572 2.97895 22.1823 2.97895 22C2.97895 21.8177 3.05138 21.6428 3.18031 21.5139C3.30924 21.3849 3.48411 21.3125 3.66645 21.3125H7.33357C7.51591 21.3125 7.69078 21.3849 7.81971 21.5139C7.94864 21.6428 8.02107 21.8177 8.02107 22C8.02107 22.1823 7.94864 22.3572 7.81971 22.4861C7.69078 22.6151 7.51591 22.6875 7.33357 22.6875ZM22.6875 40.3336C22.6875 40.5159 22.6151 40.6908 22.4861 40.8197C22.3572 40.9486 22.1823 41.0211 22 41.0211C21.8177 41.0211 21.6428 40.9486 21.5139 40.8197C21.3849 40.6908 21.3125 40.5159 21.3125 40.3336V36.6664C21.3125 36.4841 21.3849 36.3092 21.5139 36.1803C21.6428 36.0514 21.8177 35.9789 22 35.9789C22.1823 35.9789 22.3572 36.0514 22.4861 36.1803C22.6151 36.3092 22.6875 36.4841 22.6875 36.6664V40.3336ZM34.4623 12.4623L25.8115 21.1138C26.064 21.7222 26.167 22.3823 26.1121 23.0387C26.0571 23.6952 25.8458 24.3289 25.4957 24.8869C25.1456 25.4449 24.667 25.9109 24.0999 26.246C23.5328 26.5811 22.8936 26.7756 22.236 26.813C21.5783 26.8505 20.9213 26.7299 20.3198 26.4613C19.7183 26.1928 19.1898 25.784 18.7787 25.2694C18.3675 24.7547 18.0856 24.1491 17.9565 23.5032C17.8274 22.8572 17.8548 22.1897 18.0366 21.5566L13.2804 17.6646C13.0688 17.4914 12.9345 17.2412 12.9073 16.969C12.8801 16.6968 12.9622 16.425 13.1354 16.2133C13.3086 16.0016 13.5588 15.8674 13.831 15.8402C14.1032 15.813 14.375 15.895 14.5867 16.0683L19.0981 19.7594C19.812 19.0486 20.7621 18.6248 21.768 18.5685C22.7739 18.5122 23.7654 18.8274 24.5541 19.4542L33.0041 11.0041C33.1986 10.8163 33.4591 10.7123 33.7295 10.7147C33.9999 10.717 34.2586 10.8255 34.4498 11.0167C34.641 11.2079 34.7494 11.4665 34.7518 11.7369C34.7541 12.0073 34.6502 12.2678 34.4623 12.4623ZM40.3336 22.6875H36.6664C36.4841 22.6875 36.3092 22.6151 36.1803 22.4861C36.0514 22.3572 35.9789 22.1823 35.9789 22C35.9789 21.8177 36.0514 21.6428 36.1803 21.5139C36.3092 21.3849 36.4841 21.3125 36.6664 21.3125H40.3336C40.5159 21.3125 40.6908 21.3849 40.8197 21.5139C40.9486 21.6428 41.0211 21.8177 41.0211 22C41.0211 22.1823 40.9486 22.3572 40.8197 22.4861C40.6908 22.6151 40.5159 22.6875 40.3336 22.6875Z" fill="white"/>
<path d="M22 24.75C23.1391 24.75 24.0625 23.8266 24.0625 22.6875C24.0625 21.5484 23.1391 20.625 22 20.625C20.8609 20.625 19.9375 21.5484 19.9375 22.6875C19.9375 23.8266 20.8609 24.75 22 24.75Z" fill="white"/>
</g>
<defs>
<clipPath id="clip0_2_353">
<rect width="44" height="44" fill="white"/>
</clipPath>
</defs>
</svg>
