<svg width="44" height="44" viewBox="0 0 44 44" fill="none" xmlns="http://www.w3.org/2000/svg">
<path d="M34.375 35.0625C27.5 33.7563 27.5 31.625 27.5 30.25V29.425C29.2451 27.7913 30.4857 25.6918 31.075 23.375H31.1437C33.2062 23.375 33.7562 19.0438 33.7562 18.3563C33.7562 17.6688 33.825 15.125 31.6937 15.125C36.1625 2.75004 24.1312 -2.19996 15.0562 4.12504C11.3437 4.12504 11 9.62504 12.375 15.125C10.2437 15.125 10.3125 17.7375 10.3125 18.3563C10.3125 18.975 10.7937 23.375 12.925 23.375C13.5143 25.6918 14.7549 27.7913 16.5 29.425V30.25C16.5 31.625 16.5 33.825 9.62499 35.0625C7.70082 35.4027 5.91905 36.3009 4.50117 37.6455C3.08328 38.99 2.09181 40.7216 1.64999 42.625H42.35C41.892 40.7294 40.8954 39.0068 39.4804 37.6649C38.0653 36.3231 36.2922 35.4193 34.375 35.0625Z" fill="white"/>
</svg>
