<svg width="44" height="44" viewBox="0 0 44 44" fill="none" xmlns="http://www.w3.org/2000/svg">
<path d="M17.875 1.375H2.75V38.5H18.3563C17.15 36.4108 16.5147 34.041 16.5141 31.6285C16.5135 29.2161 17.1476 26.8459 18.3527 24.7561C19.5579 22.6663 21.2916 20.9303 23.3799 19.7224C25.4682 18.5146 27.8376 17.8775 30.25 17.875V13.75H17.875V1.375Z" fill="white"/>
<path d="M20.625 2.75V11H28.875L20.625 2.75Z" fill="white"/>
<path d="M30.25 20.625C28.0744 20.625 25.9477 21.2701 24.1387 22.4788C22.3298 23.6875 20.9199 25.4055 20.0873 27.4155C19.2548 29.4255 19.0369 31.6372 19.4614 33.771C19.8858 35.9048 20.9334 37.8648 22.4718 39.4032C24.0102 40.9416 25.9702 41.9892 28.104 42.4136C30.2378 42.8381 32.4495 42.6202 34.4595 41.7877C36.4695 40.9551 38.1875 39.5452 39.3962 37.7363C40.6049 35.9273 41.25 33.8006 41.25 31.625C41.25 28.7076 40.0911 25.9097 38.0282 23.8468C35.9653 21.7839 33.1674 20.625 30.25 20.625ZM35.3375 31.2125C35.0805 31.4644 34.7349 31.6056 34.375 31.6056C34.0151 31.6056 33.6695 31.4644 33.4125 31.2125L31.625 29.425V37.125C31.625 37.4897 31.4801 37.8394 31.2223 38.0973C30.9644 38.3551 30.6147 38.5 30.25 38.5C29.8853 38.5 29.5356 38.3551 29.2777 38.0973C29.0199 37.8394 28.875 37.4897 28.875 37.125V29.425L27.0875 31.2125C26.8227 31.4111 26.4952 31.5075 26.165 31.484C25.8349 31.4606 25.5243 31.3188 25.2902 31.0848C25.0562 30.8507 24.9144 30.5401 24.891 30.21C24.8675 29.8798 24.9639 29.5523 25.1625 29.2875L30.25 24.2L35.3375 29.2875C35.5894 29.5445 35.7306 29.8901 35.7306 30.25C35.7306 30.6099 35.5894 30.9555 35.3375 31.2125Z" fill="white"/>
</svg>
